<?xml version="1.0" encoding="utf-8"?>
<!-- Generator: Adobe Illustrator 25.0.1, SVG Export Plug-In . SVG Version: 6.00 Build 0)  -->
<svg version="1.1" id="圖層_1" xmlns="http://www.w3.org/2000/svg" xmlns:xlink="http://www.w3.org/1999/xlink" x="0px" y="0px"
	 viewBox="0 0 255 54" style="enable-background:new 0 0 255 54;" xml:space="preserve">
<style type="text/css">
	.st0{clip-path:url(#SVGID_2_);}
	.st1{fill:#FFFFFF;}
</style>
<g>
	<defs>
		<rect id="SVGID_1_" y="0" width="255" height="54"/>
	</defs>
	<clipPath id="SVGID_2_">
		<use xlink:href="#SVGID_1_"  style="overflow:visible;"/>
	</clipPath>
	<g class="st0">
		<g>
			<path class="st1" d="M46,12.2L25.7,0.5c-1.1-0.6-2.5-0.6-3.6,0L1.9,12.2C0.6,12.8,0,13.9,0,15.3v23.3c0,1.3,0.6,2.5,1.9,3.1
				l20.2,11.6c1.1,0.6,2.5,0.6,3.6,0L46,41.8c1.1-0.6,1.9-1.9,1.9-3.1V15.3C47.9,13.9,47.1,12.8,46,12.2z M40.5,23.3H27.6V10
				l12.9,7.4V23.3z M7.4,34.4V19.6c0-1.3,0.6-2.5,1.9-3.1l11-6.4v33.8l-11-6.4C8,36.9,7.4,35.7,7.4,34.4z M27.6,43.8V30.5h12.9v5.8
				L27.6,43.8z"/>
		</g>
		<g>
			<path class="st1" d="M70.5,30.1c0,0.5-0.2,1.1-0.3,1.7c-0.3,0.6-0.6,1.3-1.3,1.9c-0.6,0.6-1.3,1.1-2.2,1.4
				c-0.9,0.3-1.9,0.6-3,0.6c-0.9,0-1.7-0.2-2.4-0.3c-0.6-0.2-1.4-0.5-1.9-0.8c-0.6-0.3-1.1-0.8-1.6-1.4c-0.5-0.5-0.8-1.1-1.1-1.7
				c-0.3-0.6-0.5-1.3-0.6-2C56,28.6,56,27.9,56,27.1c0-1.3,0.2-2.5,0.6-3.6c0.5-1.1,0.9-1.9,1.7-2.7c0.8-0.8,1.6-1.3,2.5-1.7
				c0.9-0.3,2-0.6,3.1-0.6c1.4,0,2.5,0.3,3.6,0.8c1.1,0.5,1.9,1.3,2.4,2c0.6,0.8,0.8,1.6,0.8,2.2c0,0.3-0.2,0.8-0.5,0.9
				c-0.3,0.2-0.6,0.5-0.9,0.5c-0.5,0-0.8-0.2-0.9-0.3c-0.2-0.2-0.5-0.6-0.8-1.1c-0.5-0.8-0.9-1.4-1.6-1.9c-0.6-0.5-1.3-0.6-2.2-0.6
				c-1.4,0-2.5,0.5-3.3,1.6c-0.8,1.1-1.3,2.5-1.3,4.4c0,1.3,0.2,2.3,0.5,3.1c0.3,0.8,0.9,1.6,1.6,1.9c0.6,0.3,1.4,0.6,2.4,0.6
				c0.9,0,1.7-0.3,2.5-0.8c0.6-0.5,1.1-1.3,1.6-2c0.2-0.5,0.3-0.8,0.5-1.1c0.2-0.3,0.6-0.5,0.9-0.5c0.5,0,0.8,0.2,1.1,0.5
				C70.5,29.3,70.5,29.6,70.5,30.1z"/>
			<path class="st1" d="M84.9,29.3c0,0.9-0.2,1.7-0.5,2.5c-0.3,0.8-0.6,1.4-1.3,2c-0.5,0.6-1.3,0.9-1.9,1.3
				c-0.8,0.3-1.6,0.5-2.5,0.5c-0.9,0-1.7-0.2-2.5-0.5c-0.8-0.3-1.4-0.8-1.9-1.3c-0.5-0.6-0.9-1.3-1.3-2c-0.3-0.8-0.5-1.6-0.5-2.5
				c0-0.9,0.2-1.7,0.5-2.5c0.3-0.8,0.6-1.4,1.3-2c0.5-0.6,1.3-0.9,1.9-1.3c0.8-0.3,1.6-0.5,2.5-0.5c0.9,0,1.7,0.2,2.5,0.5
				c0.8,0.3,1.4,0.8,1.9,1.3c0.5,0.6,0.9,1.3,1.3,2C84.7,27.5,84.9,28.3,84.9,29.3z M81.8,29.3c0-1.3-0.3-2.2-0.8-3
				c-0.6-0.6-1.3-1.1-2.2-1.1c-0.6,0-1.1,0.2-1.6,0.5c-0.5,0.3-0.8,0.8-1.1,1.4c-0.3,0.6-0.3,1.3-0.3,2.2c0,0.8,0.2,1.6,0.3,2
				c0.3,0.6,0.6,1.1,1.1,1.4c0.5,0.3,0.9,0.5,1.6,0.5c0.9,0,1.7-0.3,2.2-1.1C81.4,31.5,81.8,30.5,81.8,29.3z"/>
			<path class="st1" d="M97.6,29.4v4.1c0,0.6-0.2,1.1-0.5,1.4c-0.3,0.3-0.6,0.5-1.1,0.5c-0.5,0-0.8-0.2-1.1-0.5
				c-0.3-0.3-0.5-0.8-0.5-1.4v-4.9c0-0.8,0-1.4-0.2-1.9c0-0.5-0.2-0.8-0.5-1.1c-0.2-0.3-0.6-0.5-1.1-0.5c-0.9,0-1.7,0.3-2,1.1
				c-0.3,0.6-0.5,1.7-0.5,3v4.2c0,0.6-0.2,1.1-0.5,1.4c-0.3,0.3-0.6,0.5-1.1,0.5s-0.8-0.2-1.1-0.5c-0.3-0.3-0.5-0.8-0.5-1.4v-8.8
				c0-0.6,0.2-0.9,0.5-1.3c0.3-0.3,0.6-0.5,1.1-0.5s0.8,0.2,1.1,0.5c0.3,0.3,0.5,0.6,0.5,1.1v0.3c0.5-0.6,1.1-1.1,1.7-1.4
				c0.6-0.3,1.3-0.5,2-0.5s1.4,0.2,2,0.5c0.6,0.3,0.9,0.8,1.4,1.4c0.5-0.6,1.1-1.1,1.7-1.4c0.6-0.3,1.3-0.5,2-0.5
				c0.8,0,1.6,0.2,2.2,0.5c0.6,0.3,1.1,0.8,1.4,1.4c0.3,0.6,0.5,1.4,0.5,2.7v5.9c0,0.6-0.2,1.1-0.5,1.4c-0.3,0.3-0.6,0.5-1.1,0.5
				s-0.8-0.2-1.1-0.5c-0.3-0.3-0.5-0.8-0.5-1.4v-5.2c0-0.6,0-1.3-0.2-1.6c0-0.5-0.2-0.8-0.5-0.9c-0.3-0.3-0.6-0.5-1.1-0.5
				s-0.8,0.2-1.1,0.3c-0.3,0.3-0.6,0.6-0.8,0.9C97.6,27.2,97.6,28.2,97.6,29.4z"/>
			<path class="st1" d="M110.6,24.7V25c0.6-0.8,1.3-1.3,1.9-1.6c0.6-0.3,1.3-0.5,2.2-0.5c0.9,0,1.9,0.3,2.7,0.8
				c0.8,0.5,1.4,1.3,1.9,2.2c0.5,0.9,0.6,2,0.6,3.3c0,0.9-0.2,1.9-0.5,2.7c-0.3,0.8-0.6,1.4-1.1,2c-0.5,0.5-0.9,0.9-1.7,1.3
				c-0.6,0.3-1.3,0.5-2,0.5c-0.9,0-1.6-0.2-2.2-0.5c-0.6-0.3-1.1-0.9-1.7-1.6v4.5c0,1.4-0.5,2-1.4,2c-0.6,0-0.9-0.2-1.1-0.5
				c-0.2-0.3-0.3-0.8-0.3-1.6V24.9c0-0.6,0.2-1.1,0.3-1.3c0.3-0.3,0.6-0.5,1.1-0.5c0.5,0,0.8,0.2,1.1,0.5
				C110.6,23.9,110.6,24.1,110.6,24.7z M116.6,29.3c0-0.8-0.2-1.6-0.3-2c-0.3-0.6-0.6-1.1-1.1-1.4c-0.5-0.3-0.9-0.5-1.4-0.5
				c-0.8,0-1.6,0.3-2.2,0.9c-0.6,0.6-0.9,1.7-0.9,3c0,1.3,0.3,2.2,0.9,2.8c0.6,0.6,1.3,1.1,2.2,1.1c0.5,0,0.9-0.2,1.4-0.5
				c0.5-0.3,0.8-0.8,1.1-1.4C116.4,30.7,116.6,30.1,116.6,29.3z"/>
			<path class="st1" d="M133.7,29.3c0,0.9-0.2,1.7-0.5,2.5c-0.3,0.8-0.6,1.4-1.3,2c-0.5,0.6-1.3,0.9-1.9,1.3
				c-0.8,0.3-1.6,0.5-2.5,0.5c-0.9,0-1.7-0.2-2.5-0.5c-0.8-0.3-1.4-0.8-1.9-1.3c-0.5-0.6-0.9-1.3-1.3-2c-0.3-0.8-0.5-1.6-0.5-2.5
				c0-0.9,0.2-1.7,0.5-2.5c0.3-0.8,0.6-1.4,1.3-2c0.6-0.6,1.3-0.9,1.9-1.3c0.6-0.3,1.6-0.5,2.5-0.5c0.9,0,1.7,0.2,2.5,0.5
				c0.8,0.3,1.4,0.8,1.9,1.3c0.5,0.5,0.9,1.3,1.3,2C133.5,27.5,133.7,28.3,133.7,29.3z M130.7,29.3c0-1.3-0.3-2.2-0.8-3
				c-0.5-0.8-1.3-1.1-2.2-1.1c-0.6,0-1.1,0.2-1.6,0.5c-0.5,0.3-0.8,0.8-1.1,1.4c-0.3,0.6-0.3,1.3-0.3,2.2c0,0.8,0.2,1.6,0.3,2
				c0.3,0.6,0.6,1.1,1.1,1.4c0.5,0.3,0.9,0.5,1.6,0.5c0.9,0,1.7-0.3,2.2-1.1C130.4,31.3,130.7,30.5,130.7,29.3z"/>
			<path class="st1" d="M146.1,31.5c0,0.8-0.2,1.6-0.6,2.2c-0.5,0.6-1.1,1.1-1.9,1.4c-0.8,0.3-1.7,0.5-3,0.5c-1.1,0-2-0.2-2.8-0.5
				c-0.8-0.3-1.4-0.8-1.7-1.3s-0.6-0.9-0.6-1.6c0-0.3,0.2-0.6,0.3-0.9c0.3-0.3,0.5-0.3,0.9-0.3c0.3,0,0.6,0.2,0.8,0.3
				c0.2,0.2,0.3,0.3,0.5,0.6c0.3,0.6,0.6,0.9,1.1,1.3c0.5,0.3,1.1,0.5,1.7,0.5c0.6,0,1.1-0.2,1.6-0.5c0.5-0.3,0.6-0.6,0.6-0.9
				c0-0.5-0.2-0.9-0.6-1.3c-0.5-0.3-1.1-0.5-2-0.8c-1.1-0.3-1.9-0.5-2.7-0.8c-0.6-0.3-1.3-0.6-1.6-1.1c-0.5-0.5-0.6-1.1-0.6-1.7
				s0.2-1.3,0.6-1.7c0.3-0.6,0.9-0.9,1.6-1.3c0.8-0.3,1.6-0.5,2.7-0.5c0.8,0,1.6,0.2,2.2,0.3c0.6,0.2,1.1,0.3,1.6,0.6
				c0.5,0.3,0.8,0.6,0.9,0.9c0.2,0.3,0.3,0.6,0.3,0.9c0,0.3-0.2,0.6-0.3,0.9c-0.3,0.2-0.6,0.3-0.9,0.3c-0.3,0-0.6-0.2-0.8-0.3
				c-0.2-0.2-0.5-0.5-0.8-0.8c-0.2-0.3-0.5-0.5-0.8-0.8c-0.3-0.2-0.8-0.3-1.3-0.3c-0.6,0-0.9,0.2-1.4,0.3c-0.3,0.3-0.6,0.5-0.6,0.9
				c0,0.3,0.2,0.6,0.5,0.8c0.3,0.2,0.6,0.3,1.1,0.5c0.5,0.2,1.1,0.3,1.9,0.5c0.9,0.2,1.7,0.5,2.4,0.8c0.6,0.3,1.1,0.6,1.4,1.1
				C145.9,30.4,146.1,31,146.1,31.5z"/>
			<path class="st1" d="M150.2,21.6c-0.5,0-0.8-0.2-1.1-0.5c-0.3-0.3-0.5-0.6-0.5-1.1c0-0.5,0.2-0.8,0.5-1.1
				c0.3-0.3,0.6-0.5,1.1-0.5c0.5,0,0.8,0.2,1.1,0.3c0.3,0.3,0.5,0.6,0.5,1.1c0,0.5-0.2,0.8-0.5,1.1C151,21.4,150.6,21.6,150.2,21.6z
				 M151.7,24.7v8.9c0,0.6-0.2,1.1-0.5,1.4c-0.3,0.3-0.6,0.5-1.1,0.5c-0.5,0-0.8-0.2-1.1-0.5c-0.3-0.3-0.5-0.8-0.5-1.4v-8.8
				c0-0.6,0.2-1.1,0.5-1.4c0.3-0.3,0.6-0.5,1.1-0.5c0.5,0,0.8,0.2,1.1,0.5C151.6,23.8,151.7,24.3,151.7,24.7z"/>
			<path class="st1" d="M155.2,23.3h0.3v-1.9c0-0.5,0-0.9,0-1.1c0-0.3,0.2-0.5,0.2-0.8c0.2-0.2,0.3-0.3,0.5-0.5
				c0.2-0.2,0.5-0.2,0.8-0.2c0.3,0,0.8,0.2,1.1,0.5c0.2,0.2,0.3,0.5,0.5,0.8s0.2,0.6,0.2,1.3v2h1.1c0.5,0,0.8,0.2,0.9,0.3
				s0.3,0.5,0.3,0.8c0,0.5-0.2,0.6-0.5,0.9c-0.3,0.2-0.8,0.3-1.4,0.3h-0.6v5.6c0,0.5,0,0.8,0,1.1c0,0.3,0.2,0.5,0.3,0.6
				c0.2,0.2,0.3,0.3,0.8,0.3c0.2,0,0.5,0,0.8-0.2s0.6-0.2,0.8-0.2c0.3,0,0.5,0.2,0.6,0.3c0.2,0.2,0.3,0.5,0.3,0.8
				c0,0.5-0.3,0.9-0.8,1.1c-0.5,0.3-1.3,0.5-2.4,0.5c-0.9,0-1.7-0.2-2.2-0.5c-0.5-0.3-0.8-0.8-0.9-1.4c-0.2-0.6-0.2-1.4-0.2-2.3
				v-5.9h-0.5c-0.5,0-0.8-0.2-0.9-0.3s-0.3-0.5-0.3-0.8c0-0.3,0.2-0.6,0.3-0.8C154.3,23.3,154.7,23.3,155.2,23.3z"/>
			<path class="st1" d="M171.7,30.1h-6c0,0.6,0.2,1.3,0.5,1.9c0.3,0.6,0.6,0.9,1.1,1.3c0.5,0.3,0.9,0.5,1.6,0.5c0.3,0,0.6,0,0.9-0.2
				c0.3-0.2,0.6-0.2,0.9-0.5c0.3-0.2,0.6-0.3,0.8-0.6c0.3-0.2,0.6-0.5,0.9-0.8c0.2-0.2,0.3-0.2,0.6-0.2s0.6,0.2,0.8,0.3
				c0.2,0.2,0.3,0.5,0.3,0.8c0,0.3-0.2,0.6-0.3,0.9c-0.2,0.3-0.5,0.8-0.9,1.1c-0.5,0.3-0.9,0.6-1.7,0.8c-0.6,0.2-1.4,0.3-2.4,0.3
				c-2,0-3.5-0.6-4.6-1.7c-1.1-1.1-1.7-2.7-1.7-4.5c0-0.9,0.2-1.7,0.5-2.5s0.6-1.4,1.3-2c0.5-0.6,1.1-0.9,1.9-1.3
				c0.8-0.3,1.6-0.5,2.5-0.5c1.3,0,2.2,0.3,3.1,0.8c0.8,0.5,1.6,1.1,1.9,2c0.5,0.8,0.6,1.6,0.6,2.5c0,0.8-0.2,1.3-0.6,1.6
				C173.2,29.9,172.6,30.1,171.7,30.1z M165.7,28.3h5.6c0-1.1-0.3-1.9-0.8-2.3c-0.5-0.5-1.1-0.8-1.9-0.8c-0.8,0-1.4,0.3-1.9,0.8
				C166.2,26.5,165.9,27.2,165.7,28.3z"/>
			<path class="st1" d="M186.3,20.5v4.7h7.2v-4.7c0-0.6,0.2-1.3,0.5-1.6c0.3-0.3,0.6-0.5,1.3-0.5c0.5,0,0.9,0.2,1.3,0.5
				c0.3,0.3,0.5,0.8,0.5,1.6v13c0,0.6-0.2,1.3-0.5,1.6c-0.3,0.3-0.8,0.5-1.3,0.5c-0.5,0-0.9-0.2-1.3-0.5c-0.3-0.3-0.5-0.8-0.5-1.6
				V28h-7.2v5.5c0,0.6-0.2,1.3-0.5,1.6c-0.3,0.3-0.8,0.5-1.3,0.5c-0.5,0-0.9-0.2-1.3-0.5c-0.3-0.3-0.5-0.8-0.5-1.6v-13
				c0-0.6,0.2-1.3,0.5-1.6c0.3-0.3,0.6-0.5,1.3-0.5c0.5,0,0.9,0.2,1.3,0.5C186.1,19.3,186.3,19.7,186.3,20.5z"/>
			<path class="st1" d="M203.1,35.8l0.3-0.6l-3.8-9.5c-0.2-0.6-0.3-0.9-0.3-1.3c0-0.3,0-0.5,0.2-0.8c0.2-0.2,0.3-0.5,0.6-0.5
				c0.3-0.2,0.5-0.2,0.8-0.2c0.5,0,0.8,0.2,0.9,0.5c0.2,0.3,0.5,0.6,0.6,1.3l2.7,7.5l2.5-7c0.2-0.6,0.3-0.9,0.5-1.4
				c0.2-0.3,0.3-0.5,0.5-0.6s0.5-0.2,0.8-0.2c0.2,0,0.5,0,0.6,0.2s0.3,0.3,0.5,0.5c0.2,0.2,0.2,0.5,0.2,0.6c0,0.2-0.2,0.3-0.2,0.6
				c0,0.3-0.2,0.5-0.3,0.8L206,36.2c-0.3,0.9-0.6,1.7-0.9,2.2c-0.3,0.5-0.8,0.9-1.3,1.3c-0.5,0.3-1.3,0.5-2.2,0.5
				c-0.9,0-1.6-0.2-2-0.3c-0.5-0.2-0.6-0.6-0.6-1.1c0-0.3,0.2-0.6,0.3-0.8c0.2-0.2,0.5-0.3,0.9-0.3c0.2,0,0.3,0,0.5,0s0.3,0,0.5,0
				c0.3,0,0.6,0,0.8-0.2c0.2-0.2,0.3-0.3,0.5-0.5C202.6,36.8,202.9,36.3,203.1,35.8z"/>
			<path class="st1" d="M215.6,20.2v4.7c0.6-0.6,1.1-1.1,1.7-1.4c0.6-0.3,1.4-0.5,2.2-0.5c1.1,0,1.9,0.3,2.7,0.8s1.4,1.3,1.7,2
				c0.5,0.9,0.6,2,0.6,3.3c0,0.9-0.2,1.7-0.3,2.5c-0.3,0.8-0.6,1.4-1.1,2c-0.5,0.6-0.9,0.9-1.6,1.3c-0.6,0.3-1.4,0.5-2.2,0.5
				c-0.5,0-0.9,0-1.4-0.2c-0.5-0.2-0.8-0.3-1.1-0.5c-0.3-0.2-0.5-0.3-0.8-0.6c-0.2-0.2-0.5-0.5-0.8-0.9v0.3c0,0.6-0.2,0.9-0.5,1.3
				c-0.3,0.3-0.6,0.5-1.1,0.5c-0.5,0-0.8-0.2-1.1-0.5c-0.3-0.3-0.3-0.8-0.3-1.3V20.3c0-0.6,0.2-1.1,0.3-1.4c0.3-0.3,0.6-0.5,1.1-0.5
				c0.5,0,0.8,0.2,1.1,0.5C215.5,19.3,215.6,19.6,215.6,20.2z M215.8,29.3c0,1.3,0.3,2.2,0.8,2.8c0.6,0.6,1.3,0.9,2.2,0.9
				c0.8,0,1.4-0.3,2-0.9c0.6-0.6,0.8-1.6,0.8-2.8c0-0.8-0.2-1.6-0.3-2c-0.2-0.6-0.6-1.1-0.9-1.4c-0.5-0.3-0.9-0.5-1.6-0.5
				c-0.6,0-1.1,0.2-1.6,0.5c-0.5,0.3-0.8,0.8-1.1,1.4C215.8,27.9,215.8,28.5,215.8,29.3z"/>
			<path class="st1" d="M230.2,31v2.5c0,0.6-0.2,1.1-0.5,1.4c-0.3,0.3-0.6,0.5-1.1,0.5c-0.5,0-0.8-0.2-1.1-0.5
				c-0.3-0.3-0.5-0.8-0.5-1.4V25c0-1.4,0.5-2,1.6-2c0.5,0,0.9,0.2,1.1,0.5c0.2,0.3,0.3,0.8,0.3,1.4c0.3-0.6,0.8-1.1,1.1-1.4
				c0.3-0.3,0.9-0.5,1.6-0.5c0.6,0,1.3,0.2,1.9,0.5c0.6,0.3,0.9,0.8,0.9,1.3c0,0.3-0.2,0.6-0.3,0.9c-0.2,0.3-0.5,0.3-0.8,0.3
				c-0.2,0-0.3,0-0.8-0.2c-0.5-0.2-0.8-0.2-1.1-0.2c-0.5,0-0.8,0.2-1.1,0.3c-0.3,0.2-0.5,0.6-0.6,1.1c-0.2,0.5-0.3,1.1-0.3,1.7
				C230.4,29.4,230.2,30.2,230.2,31z"/>
			<path class="st1" d="M238.8,21.6c-0.5,0-0.8-0.2-1.1-0.5c-0.3-0.3-0.5-0.6-0.5-1.1c0-0.5,0.2-0.8,0.5-1.1
				c0.3-0.3,0.6-0.5,1.1-0.5c0.5,0,0.8,0.2,1.1,0.3c0.3,0.3,0.5,0.6,0.5,1.1c0,0.5-0.2,0.8-0.5,1.1
				C239.6,21.4,239.3,21.6,238.8,21.6z M240.4,24.7v8.9c0,0.6-0.2,1.1-0.5,1.4c-0.3,0.3-0.6,0.5-1.1,0.5c-0.5,0-0.8-0.2-1.1-0.5
				c-0.3-0.3-0.5-0.8-0.5-1.4v-8.8c0-0.6,0.2-1.1,0.5-1.4c0.3-0.3,0.6-0.5,1.1-0.5c0.5,0,0.8,0.2,1.1,0.5
				C240.2,23.8,240.4,24.3,240.4,24.7z"/>
			<path class="st1" d="M252,33.8v-0.3c-0.5,0.5-0.8,0.8-1.3,1.1s-0.8,0.5-1.3,0.6c-0.5,0.2-0.9,0.2-1.6,0.2c-0.8,0-1.4-0.2-2-0.5
				c-0.6-0.3-1.1-0.8-1.6-1.4c-0.5-0.6-0.8-1.3-1.1-2c-0.3-0.8-0.3-1.6-0.3-2.5c0-1.9,0.5-3.4,1.4-4.5c0.9-1.1,2.2-1.6,3.8-1.6
				c0.9,0,1.6,0.2,2.2,0.5c0.6,0.3,1.3,0.8,1.7,1.4v-4.4c0-0.6,0.2-1.1,0.3-1.4c0.2-0.3,0.6-0.5,1.1-0.5s0.8,0.2,1.1,0.5
				c0.3,0.3,0.3,0.8,0.3,1.3v13.6c0,0.6-0.2,1.1-0.5,1.3c-0.3,0.3-0.6,0.5-1.1,0.5c-0.5,0-0.8-0.2-1.1-0.5
				C252.2,34.7,252,34.3,252,33.8z M246.1,29.3c0,0.8,0.2,1.6,0.3,2.2c0.3,0.6,0.6,1.1,1.1,1.3c0.5,0.3,0.9,0.5,1.4,0.5
				c0.5,0,1.1-0.2,1.4-0.5c0.5-0.3,0.8-0.8,1.1-1.3c0.3-0.5,0.5-1.3,0.5-2.2c0-0.8-0.2-1.6-0.5-2c-0.3-0.5-0.6-1.1-1.1-1.4
				c-0.5-0.3-0.9-0.5-1.6-0.5c-0.6,0-1.1,0.2-1.6,0.5c-0.5,0.3-0.8,0.8-1.1,1.4C246.1,27.7,246.1,28.5,246.1,29.3z"/>
		</g>
	</g>
</g>
</svg>
