<svg width="91" height="145" viewBox="0 0 91 145" fill="none" xmlns="http://www.w3.org/2000/svg">
<path d="M76.6555 0H13.5274C6.05917 0 0 6.08887 0 13.5938V131.406C0 138.911 6.05917 145 13.5274 145H76.6555C84.1238 145 90.1829 138.911 90.1829 131.406V13.5938C90.1829 6.08887 84.1238 0 76.6555 0ZM45.0915 135.938C40.1032 135.938 36.0732 131.888 36.0732 126.875C36.0732 121.862 40.1032 117.812 45.0915 117.812C50.0797 117.812 54.1098 121.862 54.1098 126.875C54.1098 131.888 50.0797 135.938 45.0915 135.938ZM76.6555 105.352C76.6555 107.221 75.1336 108.75 73.2736 108.75H16.9093C15.0493 108.75 13.5274 107.221 13.5274 105.352V16.9922C13.5274 15.123 15.0493 13.5938 16.9093 13.5938H73.2736C75.1336 13.5938 76.6555 15.123 76.6555 16.9922V105.352Z" fill="white"/>
</svg>
